<mxfile host="app.diagrams.net" modified="2021-09-28T17:04:25.944Z" agent="5.0 (Macintosh; Intel Mac OS X 10_15_7) AppleWebKit/605.1.15 (KHTML, like Gecko) Version/15.0 Safari/605.1.15" etag="6hH4ahx8tRrgRG1UBdCQ" version="15.3.7" type="github" pages="2">
  <diagram id="KtJzVkYdxNgb8ECq-PnG" name="Page-1">
    <mxGraphModel dx="946" dy="637" grid="1" gridSize="10" guides="1" tooltips="1" connect="1" arrows="1" fold="1" page="1" pageScale="1" pageWidth="850" pageHeight="1100" math="0" shadow="0">
      <root>
        <mxCell id="0" />
        <mxCell id="1" parent="0" />
        <mxCell id="6JC1C9GrK0kpy0wwM7OJ-1" value="&lt;br class=&quot;Apple-interchange-newline&quot; style=&quot;font-size: 2px;&quot;&gt;&lt;img src=&quot;https://nginyc.github.io/rafiki/docs/0.2.0/_images/container-diagram.png&quot; style=&quot;color: rgb(0, 0, 0); font-style: normal; font-weight: normal; letter-spacing: normal; text-indent: 0px; text-transform: none; word-spacing: 0px; text-decoration: none; display: block; margin: auto; font-size: 2px;&quot;&gt;" style="text;html=1;fontSize=2;resizeWidth=1;resizeHeight=1;imageWidth=5;imageHeight=5;imageAspect=1;" parent="1" vertex="1">
          <mxGeometry x="30" y="200" width="270" height="200" as="geometry" />
        </mxCell>
      </root>
    </mxGraphModel>
  </diagram>
  <diagram id="88aZP7cHcvnOYW69LjKt" name="Page-2">
    <mxGraphModel dx="946" dy="637" grid="1" gridSize="10" guides="1" tooltips="1" connect="1" arrows="1" fold="1" page="1" pageScale="1" pageWidth="850" pageHeight="1100" math="0" shadow="0">
      <root>
        <mxCell id="JTYjFNUO7qzTNSxJmos2-0" />
        <mxCell id="JTYjFNUO7qzTNSxJmos2-1" parent="JTYjFNUO7qzTNSxJmos2-0" />
        <mxCell id="NX4JMW8KbotMPzw3ktvl-1" value="" style="rounded=0;whiteSpace=wrap;html=1;fillColor=none;" parent="JTYjFNUO7qzTNSxJmos2-1" vertex="1">
          <mxGeometry x="110" y="680" width="530" height="370" as="geometry" />
        </mxCell>
        <mxCell id="NX4JMW8KbotMPzw3ktvl-0" value="Storage Layer" style="text;html=1;strokeColor=none;fillColor=none;align=center;verticalAlign=middle;whiteSpace=wrap;rounded=0;" parent="JTYjFNUO7qzTNSxJmos2-1" vertex="1">
          <mxGeometry x="290" y="955" width="80" height="40" as="geometry" />
        </mxCell>
        <mxCell id="NX4JMW8KbotMPzw3ktvl-2" value="Backend Layer" style="text;html=1;strokeColor=none;fillColor=none;align=center;verticalAlign=middle;whiteSpace=wrap;rounded=0;" parent="JTYjFNUO7qzTNSxJmos2-1" vertex="1">
          <mxGeometry x="660" y="950" width="100" height="20" as="geometry" />
        </mxCell>
        <mxCell id="NX4JMW8KbotMPzw3ktvl-3" value="AWS EC2" style="text;html=1;strokeColor=none;fillColor=none;align=center;verticalAlign=middle;whiteSpace=wrap;rounded=0;" parent="JTYjFNUO7qzTNSxJmos2-1" vertex="1">
          <mxGeometry x="350" y="1060" width="125" height="10" as="geometry" />
        </mxCell>
        <mxCell id="NX4JMW8KbotMPzw3ktvl-6" value="" style="rounded=1;whiteSpace=wrap;html=1;fillColor=none;" parent="JTYjFNUO7qzTNSxJmos2-1" vertex="1">
          <mxGeometry x="140" y="920" width="140" height="100" as="geometry" />
        </mxCell>
        <mxCell id="NX4JMW8KbotMPzw3ktvl-5" value="MySQL" style="text;html=1;strokeColor=none;fillColor=none;align=center;verticalAlign=middle;whiteSpace=wrap;rounded=0;" parent="JTYjFNUO7qzTNSxJmos2-1" vertex="1">
          <mxGeometry x="192" y="995" width="40" height="20" as="geometry" />
        </mxCell>
        <mxCell id="NX4JMW8KbotMPzw3ktvl-7" value="" style="shape=image;verticalLabelPosition=bottom;labelBackgroundColor=#ffffff;verticalAlign=top;aspect=fixed;imageAspect=0;image=https://static.thenounproject.com/png/9658-200.png;" parent="JTYjFNUO7qzTNSxJmos2-1" vertex="1">
          <mxGeometry x="177" y="925" width="70" height="70" as="geometry" />
        </mxCell>
        <mxCell id="NX4JMW8KbotMPzw3ktvl-9" value="Apache Webserver" style="text;html=1;strokeColor=none;fillColor=none;align=center;verticalAlign=middle;whiteSpace=wrap;rounded=0;" parent="JTYjFNUO7qzTNSxJmos2-1" vertex="1">
          <mxGeometry x="295.47999999999996" y="770" width="164.85" height="20" as="geometry" />
        </mxCell>
        <mxCell id="bbYZTNoHcN4oo4c7qdkR-1" value="" style="shape=image;verticalLabelPosition=bottom;labelBackgroundColor=#ffffff;verticalAlign=top;aspect=fixed;imageAspect=0;image=https://cdn.freebiesupply.com/logos/large/2x/flask-logo-png-transparent.png;" parent="JTYjFNUO7qzTNSxJmos2-1" vertex="1">
          <mxGeometry x="295.48" y="690" width="54.52" height="70" as="geometry" />
        </mxCell>
        <mxCell id="bbYZTNoHcN4oo4c7qdkR-2" value="" style="shape=image;verticalLabelPosition=bottom;labelBackgroundColor=#ffffff;verticalAlign=top;aspect=fixed;imageAspect=0;image=https://quintagroup.com/cms/python/images/sqlalchemy-logo.png/@@images/eca35254-a2db-47a8-850b-2678f7f8bc09.png;" parent="JTYjFNUO7qzTNSxJmos2-1" vertex="1">
          <mxGeometry x="225" y="826.64" width="190.31" height="40" as="geometry" />
        </mxCell>
        <mxCell id="bbYZTNoHcN4oo4c7qdkR-3" value="ORM" style="text;html=1;strokeColor=none;fillColor=none;align=center;verticalAlign=middle;whiteSpace=wrap;rounded=0;fontSize=23;" parent="JTYjFNUO7qzTNSxJmos2-1" vertex="1">
          <mxGeometry x="255.14999999999998" y="850" width="130" height="50" as="geometry" />
        </mxCell>
        <mxCell id="bbYZTNoHcN4oo4c7qdkR-4" value="" style="rounded=1;whiteSpace=wrap;html=1;fontSize=23;fillColor=none;" parent="JTYjFNUO7qzTNSxJmos2-1" vertex="1">
          <mxGeometry x="210" y="816.64" width="220" height="73.36" as="geometry" />
        </mxCell>
        <mxCell id="bbYZTNoHcN4oo4c7qdkR-5" value="" style="endArrow=classic;html=1;fontSize=23;entryX=0.5;entryY=0;entryDx=0;entryDy=0;" parent="JTYjFNUO7qzTNSxJmos2-1" source="bbYZTNoHcN4oo4c7qdkR-1" target="bbYZTNoHcN4oo4c7qdkR-4" edge="1">
          <mxGeometry width="50" height="50" relative="1" as="geometry">
            <mxPoint x="400" y="800" as="sourcePoint" />
            <mxPoint x="450" y="750" as="targetPoint" />
          </mxGeometry>
        </mxCell>
        <mxCell id="JJ5b9eUIVKytN-tCI2mW-1" value="" style="rounded=1;whiteSpace=wrap;html=1;fillColor=none;" vertex="1" parent="JTYjFNUO7qzTNSxJmos2-1">
          <mxGeometry x="220" y="685" width="210" height="80" as="geometry" />
        </mxCell>
        <mxCell id="JJ5b9eUIVKytN-tCI2mW-2" value="" style="rounded=1;whiteSpace=wrap;html=1;fillColor=none;" vertex="1" parent="JTYjFNUO7qzTNSxJmos2-1">
          <mxGeometry x="110" y="462" width="530" height="180" as="geometry" />
        </mxCell>
        <mxCell id="TwOFP1fzmFcTw7rPwU2b-0" value="" style="curved=1;endArrow=classic;html=1;exitX=0.5;exitY=1;exitDx=0;exitDy=0;entryX=1;entryY=0.25;entryDx=0;entryDy=0;" edge="1" parent="JTYjFNUO7qzTNSxJmos2-1" source="bbYZTNoHcN4oo4c7qdkR-4" target="NX4JMW8KbotMPzw3ktvl-6">
          <mxGeometry width="50" height="50" relative="1" as="geometry">
            <mxPoint x="400" y="1000" as="sourcePoint" />
            <mxPoint x="450" y="950" as="targetPoint" />
            <Array as="points">
              <mxPoint x="320" y="920" />
              <mxPoint x="320" y="950" />
            </Array>
          </mxGeometry>
        </mxCell>
      </root>
    </mxGraphModel>
  </diagram>
</mxfile>
